<?xml version="1.0" encoding="UTF-8" standalone="no"?>
<!DOCTYPE svg PUBLIC "-//W3C//DTD SVG 1.1//EN"
 "http://www.w3.org/Graphics/SVG/1.1/DTD/svg11.dtd">
<!-- Generated by graphviz version 2.40.1 (20161225.0304)
 -->
<!-- Title: AgglomerativeClustering Pages: 1 -->
<svg width="433pt" height="341pt"
 viewBox="0.00 0.00 433.30 341.28" xmlns="http://www.w3.org/2000/svg" xmlns:xlink="http://www.w3.org/1999/xlink">
<g id="graph0" class="graph" transform="scale(1 1) rotate(0) translate(4 337.2822)">
<title>AgglomerativeClustering</title>
<polygon fill="#ffffff" stroke="transparent" points="-4,4 -4,-337.2822 429.3035,-337.2822 429.3035,4 -4,4"/>
<!-- Start -->
<g id="node1" class="node">
<title>Start</title>
<path fill="#f87671" stroke="#000000" d="M42,-172.7152C42,-172.7152 12,-172.7152 12,-172.7152 6,-172.7152 0,-166.7152 0,-160.7152 0,-160.7152 0,-148.7152 0,-148.7152 0,-142.7152 6,-136.7152 12,-136.7152 12,-136.7152 42,-136.7152 42,-136.7152 48,-136.7152 54,-142.7152 54,-148.7152 54,-148.7152 54,-160.7152 54,-160.7152 54,-166.7152 48,-172.7152 42,-172.7152"/>
<text text-anchor="middle" x="27" y="-152.3152" font-family="Arial Bold" font-size="8.00" fill="#ffffff">开始</text>
</g>
<!-- EachPointAsCluster -->
<g id="node2" class="node">
<title>EachPointAsCluster</title>
<path fill="#a3c8c0" stroke="#000000" d="M210.1602,-172.7152C210.1602,-172.7152 136.4887,-172.7152 136.4887,-172.7152 130.4887,-172.7152 124.4887,-166.7152 124.4887,-160.7152 124.4887,-160.7152 124.4887,-148.7152 124.4887,-148.7152 124.4887,-142.7152 130.4887,-136.7152 136.4887,-136.7152 136.4887,-136.7152 210.1602,-136.7152 210.1602,-136.7152 216.1602,-136.7152 222.1602,-142.7152 222.1602,-148.7152 222.1602,-148.7152 222.1602,-160.7152 222.1602,-160.7152 222.1602,-166.7152 216.1602,-172.7152 210.1602,-172.7152"/>
<text text-anchor="middle" x="173.3245" y="-152.3152" font-family="Arial" font-size="8.00" fill="#000000">将每个数据点视为一个簇</text>
</g>
<!-- Start&#45;&gt;EachPointAsCluster -->
<g id="edge1" class="edge">
<title>Start&#45;&gt;EachPointAsCluster</title>
<path fill="none" stroke="#000000" d="M54.1796,-154.7152C71.0837,-154.7152 93.4955,-154.7152 114.317,-154.7152"/>
<polygon fill="#000000" stroke="#000000" points="114.3796,-158.2153 124.3796,-154.7152 114.3796,-151.2153 114.3796,-158.2153"/>
</g>
<!-- ComputeDistances -->
<g id="node3" class="node">
<title>ComputeDistances</title>
<path fill="#f8b195" stroke="#000000" d="M260.6857,-333.2822C260.6857,-333.2822 184.4809,-333.2822 184.4809,-333.2822 178.4809,-333.2822 172.4809,-327.2822 172.4809,-321.2822 172.4809,-321.2822 172.4809,-309.2822 172.4809,-309.2822 172.4809,-303.2822 178.4809,-297.2822 184.4809,-297.2822 184.4809,-297.2822 260.6857,-297.2822 260.6857,-297.2822 266.6857,-297.2822 272.6857,-303.2822 272.6857,-309.2822 272.6857,-309.2822 272.6857,-321.2822 272.6857,-321.2822 272.6857,-327.2822 266.6857,-333.2822 260.6857,-333.2822"/>
<text text-anchor="middle" x="222.5833" y="-312.8822" font-family="Arial" font-size="8.00" fill="#000000">计算所有簇之间的距离</text>
</g>
<!-- EachPointAsCluster&#45;&gt;ComputeDistances -->
<g id="edge2" class="edge">
<title>EachPointAsCluster&#45;&gt;ComputeDistances</title>
<path fill="none" stroke="#000000" d="M178.8793,-172.8222C187.416,-200.6488 203.83,-254.1529 213.9328,-287.0845"/>
<polygon fill="#000000" stroke="#000000" points="210.6941,-288.4614 216.9732,-296.9951 217.3863,-286.4083 210.6941,-288.4614"/>
</g>
<!-- MergeClosest -->
<g id="node4" class="node">
<title>MergeClosest</title>
<path fill="#a3c8c0" stroke="#000000" d="M413.4572,-284.0234C413.4572,-284.0234 352.8433,-284.0234 352.8433,-284.0234 346.8433,-284.0234 340.8433,-278.0234 340.8433,-272.0234 340.8433,-272.0234 340.8433,-260.0234 340.8433,-260.0234 340.8433,-254.0234 346.8433,-248.0234 352.8433,-248.0234 352.8433,-248.0234 413.4572,-248.0234 413.4572,-248.0234 419.4572,-248.0234 425.4572,-254.0234 425.4572,-260.0234 425.4572,-260.0234 425.4572,-272.0234 425.4572,-272.0234 425.4572,-278.0234 419.4572,-284.0234 413.4572,-284.0234"/>
<text text-anchor="middle" x="383.1503" y="-263.6234" font-family="Arial" font-size="8.00" fill="#000000">合并最接近的两个簇</text>
</g>
<!-- ComputeDistances&#45;&gt;MergeClosest -->
<g id="edge3" class="edge">
<title>ComputeDistances&#45;&gt;MergeClosest</title>
<path fill="none" stroke="#000000" d="M272.9471,-299.8315C291.4236,-294.1633 312.3671,-287.7383 330.9972,-282.0229"/>
<polygon fill="#000000" stroke="#000000" points="332.2564,-285.2977 340.7901,-279.0186 330.2033,-278.6055 332.2564,-285.2977"/>
</g>
<!-- CheckCondition -->
<g id="node5" class="node">
<title>CheckCondition</title>
<path fill="#f8b195" stroke="#000000" d="M378.9411,-123.4564C378.9411,-123.4564 288.8417,-123.4564 288.8417,-123.4564 282.8417,-123.4564 276.8417,-117.4564 276.8417,-111.4564 276.8417,-111.4564 276.8417,-99.4564 276.8417,-99.4564 276.8417,-93.4564 282.8417,-87.4564 288.8417,-87.4564 288.8417,-87.4564 378.9411,-87.4564 378.9411,-87.4564 384.9411,-87.4564 390.9411,-93.4564 390.9411,-99.4564 390.9411,-99.4564 390.9411,-111.4564 390.9411,-111.4564 390.9411,-117.4564 384.9411,-123.4564 378.9411,-123.4564"/>
<text text-anchor="middle" x="333.8914" y="-103.0564" font-family="Arial" font-size="8.00" fill="#000000">达到指定的簇数量或条件？</text>
</g>
<!-- MergeClosest&#45;&gt;CheckCondition -->
<g id="edge4" class="edge">
<title>MergeClosest&#45;&gt;CheckCondition</title>
<path fill="none" stroke="#000000" d="M377.5954,-247.9164C369.0587,-220.0898 352.6447,-166.5857 342.5419,-133.6541"/>
<polygon fill="#000000" stroke="#000000" points="345.7806,-132.2772 339.5016,-123.7435 339.0884,-134.3303 345.7806,-132.2772"/>
</g>
<!-- CheckCondition&#45;&gt;EachPointAsCluster -->
<g id="edge5" class="edge">
<title>CheckCondition&#45;&gt;EachPointAsCluster</title>
<path fill="none" stroke="#000000" d="M276.8294,-122.9619C262.3282,-127.4106 246.721,-132.1986 232.1346,-136.6734"/>
<polygon fill="#000000" stroke="#000000" points="230.7592,-133.4343 222.2255,-139.7133 232.8123,-140.1265 230.7592,-133.4343"/>
<text text-anchor="middle" x="246.7001" y="-134.0177" font-family="Arial" font-size="14.00" fill="#000000">否</text>
</g>
<!-- End -->
<g id="node6" class="node">
<title>End</title>
<path fill="#f87671" stroke="#000000" d="M395.2852,-36C395.2852,-36 365.2852,-36 365.2852,-36 359.2852,-36 353.2852,-30 353.2852,-24 353.2852,-24 353.2852,-12 353.2852,-12 353.2852,-6 359.2852,0 365.2852,0 365.2852,0 395.2852,0 395.2852,0 401.2852,0 407.2852,-6 407.2852,-12 407.2852,-12 407.2852,-24 407.2852,-24 407.2852,-30 401.2852,-36 395.2852,-36"/>
<text text-anchor="middle" x="380.2852" y="-15.6" font-family="Arial Bold" font-size="8.00" fill="#ffffff">结束</text>
</g>
<!-- CheckCondition&#45;&gt;End -->
<g id="edge6" class="edge">
<title>CheckCondition&#45;&gt;End</title>
<path fill="none" stroke="#000000" d="M343.5042,-87.3354C349.9736,-75.14 358.6195,-58.8418 365.9032,-45.1113"/>
<polygon fill="#000000" stroke="#000000" points="369.0903,-46.572 370.6847,-36.0978 362.9065,-43.2916 369.0903,-46.572"/>
<text text-anchor="middle" x="347.3131" y="-70.4233" font-family="Arial" font-size="14.00" fill="#000000">是</text>
</g>
</g>
</svg>
