<?xml version="1.0" encoding="UTF-8" standalone="no"?>
<!DOCTYPE svg PUBLIC "-//W3C//DTD SVG 1.1//EN"
 "http://www.w3.org/Graphics/SVG/1.1/DTD/svg11.dtd">
<!-- Generated by graphviz version 2.40.1 (20161225.0304)
 -->
<!-- Title: AgglomerativeClustering Pages: 1 -->
<svg width="165pt" height="426pt"
 viewBox="0.00 0.00 164.97 426.20" xmlns="http://www.w3.org/2000/svg" xmlns:xlink="http://www.w3.org/1999/xlink">
<g id="graph0" class="graph" transform="scale(1 1) rotate(0) translate(4 422.2)">
<title>AgglomerativeClustering</title>
<polygon fill="#ffffff" stroke="transparent" points="-4,4 -4,-422.2 160.9684,-422.2 160.9684,4 -4,4"/>
<!-- Start -->
<g id="node1" class="node">
<title>Start</title>
<path fill="#f87671" stroke="#000000" d="M123.3008,-418.2C123.3008,-418.2 93.3008,-418.2 93.3008,-418.2 87.3008,-418.2 81.3008,-412.2 81.3008,-406.2 81.3008,-406.2 81.3008,-394.2 81.3008,-394.2 81.3008,-388.2 87.3008,-382.2 93.3008,-382.2 93.3008,-382.2 123.3008,-382.2 123.3008,-382.2 129.3008,-382.2 135.3008,-388.2 135.3008,-394.2 135.3008,-394.2 135.3008,-406.2 135.3008,-406.2 135.3008,-412.2 129.3008,-418.2 123.3008,-418.2"/>
<text text-anchor="middle" x="108.3008" y="-397.8" font-family="Arial Bold" font-size="8.00" fill="#ffffff">开始</text>
</g>
<!-- EachPointAsCluster -->
<g id="node2" class="node">
<title>EachPointAsCluster</title>
<path fill="#a3c8c0" stroke="#000000" d="M145.1366,-345.2C145.1366,-345.2 71.465,-345.2 71.465,-345.2 65.465,-345.2 59.465,-339.2 59.465,-333.2 59.465,-333.2 59.465,-321.2 59.465,-321.2 59.465,-315.2 65.465,-309.2 71.465,-309.2 71.465,-309.2 145.1366,-309.2 145.1366,-309.2 151.1366,-309.2 157.1366,-315.2 157.1366,-321.2 157.1366,-321.2 157.1366,-333.2 157.1366,-333.2 157.1366,-339.2 151.1366,-345.2 145.1366,-345.2"/>
<text text-anchor="middle" x="108.3008" y="-324.8" font-family="Arial" font-size="8.00" fill="#000000">将每个数据点视为一个簇</text>
</g>
<!-- Start&#45;&gt;EachPointAsCluster -->
<g id="edge1" class="edge">
<title>Start&#45;&gt;EachPointAsCluster</title>
<path fill="none" stroke="#000000" d="M108.3008,-382.1551C108.3008,-374.0828 108.3008,-364.3764 108.3008,-355.3817"/>
<polygon fill="#000000" stroke="#000000" points="111.8009,-355.2903 108.3008,-345.2904 104.8009,-355.2904 111.8009,-355.2903"/>
</g>
<!-- ComputeDistances -->
<g id="node3" class="node">
<title>ComputeDistances</title>
<path fill="#f8b195" stroke="#000000" d="M88.4032,-272.2C88.4032,-272.2 12.1984,-272.2 12.1984,-272.2 6.1984,-272.2 .1984,-266.2 .1984,-260.2 .1984,-260.2 .1984,-248.2 .1984,-248.2 .1984,-242.2 6.1984,-236.2 12.1984,-236.2 12.1984,-236.2 88.4032,-236.2 88.4032,-236.2 94.4032,-236.2 100.4032,-242.2 100.4032,-248.2 100.4032,-248.2 100.4032,-260.2 100.4032,-260.2 100.4032,-266.2 94.4032,-272.2 88.4032,-272.2"/>
<text text-anchor="middle" x="50.3008" y="-251.8" font-family="Arial" font-size="8.00" fill="#000000">计算所有簇之间的距离</text>
</g>
<!-- EachPointAsCluster&#45;&gt;ComputeDistances -->
<g id="edge2" class="edge">
<title>EachPointAsCluster&#45;&gt;ComputeDistances</title>
<path fill="none" stroke="#000000" d="M93.9637,-309.1551C87.0622,-300.4686 78.6571,-289.8898 71.0712,-280.342"/>
<polygon fill="#000000" stroke="#000000" points="73.6351,-277.9427 64.674,-272.2904 68.1544,-282.2972 73.6351,-277.9427"/>
</g>
<!-- MergeClosest -->
<g id="node4" class="node">
<title>MergeClosest</title>
<path fill="#a3c8c0" stroke="#000000" d="M86.6078,-190.6C86.6078,-190.6 25.9938,-190.6 25.9938,-190.6 19.9938,-190.6 13.9938,-184.6 13.9938,-178.6 13.9938,-178.6 13.9938,-166.6 13.9938,-166.6 13.9938,-160.6 19.9938,-154.6 25.9938,-154.6 25.9938,-154.6 86.6078,-154.6 86.6078,-154.6 92.6078,-154.6 98.6078,-160.6 98.6078,-166.6 98.6078,-166.6 98.6078,-178.6 98.6078,-178.6 98.6078,-184.6 92.6078,-190.6 86.6078,-190.6"/>
<text text-anchor="middle" x="56.3008" y="-170.2" font-family="Arial" font-size="8.00" fill="#000000">合并最接近的两个簇</text>
</g>
<!-- ComputeDistances&#45;&gt;MergeClosest -->
<g id="edge3" class="edge">
<title>ComputeDistances&#45;&gt;MergeClosest</title>
<path fill="none" stroke="#000000" d="M51.6324,-236.0903C52.3937,-225.7371 53.3651,-212.5258 54.2245,-200.8383"/>
<polygon fill="#000000" stroke="#000000" points="57.7301,-200.8888 54.9729,-190.6591 50.7489,-200.3754 57.7301,-200.8888"/>
</g>
<!-- CheckCondition -->
<g id="node5" class="node">
<title>CheckCondition</title>
<path fill="#f8b195" stroke="#000000" d="M138.3505,-117.6C138.3505,-117.6 48.2511,-117.6 48.2511,-117.6 42.2511,-117.6 36.2511,-111.6 36.2511,-105.6 36.2511,-105.6 36.2511,-93.6 36.2511,-93.6 36.2511,-87.6 42.2511,-81.6 48.2511,-81.6 48.2511,-81.6 138.3505,-81.6 138.3505,-81.6 144.3505,-81.6 150.3505,-87.6 150.3505,-93.6 150.3505,-93.6 150.3505,-105.6 150.3505,-105.6 150.3505,-111.6 144.3505,-117.6 138.3505,-117.6"/>
<text text-anchor="middle" x="93.3008" y="-97.2" font-family="Arial" font-size="8.00" fill="#000000">达到指定的簇数量或条件？</text>
</g>
<!-- MergeClosest&#45;&gt;CheckCondition -->
<g id="edge4" class="edge">
<title>MergeClosest&#45;&gt;CheckCondition</title>
<path fill="none" stroke="#000000" d="M65.4469,-154.5551C69.7162,-146.1319 74.8873,-135.9292 79.6094,-126.6128"/>
<polygon fill="#000000" stroke="#000000" points="82.7326,-128.1924 84.1317,-117.6904 76.4888,-125.0277 82.7326,-128.1924"/>
</g>
<!-- CheckCondition&#45;&gt;EachPointAsCluster -->
<g id="edge5" class="edge">
<title>CheckCondition&#45;&gt;EachPointAsCluster</title>
<path fill="none" stroke="#000000" d="M99.0101,-117.7295C102.0799,-128.356 105.5799,-142.106 107.3008,-154.6 114.2372,-204.9587 112.4198,-264.3676 110.4042,-298.7191"/>
<polygon fill="#000000" stroke="#000000" points="106.8955,-298.7464 109.7537,-308.9484 113.8814,-299.1907 106.8955,-298.7464"/>
<text text-anchor="middle" x="115.7476" y="-211" font-family="Arial" font-size="8.00" fill="#000000">否</text>
</g>
<!-- End -->
<g id="node6" class="node">
<title>End</title>
<path fill="#f87671" stroke="#000000" d="M108.3008,-36C108.3008,-36 78.3008,-36 78.3008,-36 72.3008,-36 66.3008,-30 66.3008,-24 66.3008,-24 66.3008,-12 66.3008,-12 66.3008,-6 72.3008,0 78.3008,0 78.3008,0 108.3008,0 108.3008,0 114.3008,0 120.3008,-6 120.3008,-12 120.3008,-12 120.3008,-24 120.3008,-24 120.3008,-30 114.3008,-36 108.3008,-36"/>
<text text-anchor="middle" x="93.3008" y="-15.6" font-family="Arial Bold" font-size="8.00" fill="#ffffff">结束</text>
</g>
<!-- CheckCondition&#45;&gt;End -->
<g id="edge6" class="edge">
<title>CheckCondition&#45;&gt;End</title>
<path fill="none" stroke="#000000" d="M93.3008,-81.4903C93.3008,-71.1371 93.3008,-57.9258 93.3008,-46.2383"/>
<polygon fill="#000000" stroke="#000000" points="96.8009,-46.059 93.3008,-36.0591 89.8009,-46.0591 96.8009,-46.059"/>
<text text-anchor="middle" x="97.524" y="-56.4" font-family="Arial" font-size="8.00" fill="#000000">是</text>
</g>
</g>
</svg>
