<?xml version="1.0" encoding="UTF-8" standalone="no"?>
<!DOCTYPE svg PUBLIC "-//W3C//DTD SVG 1.1//EN"
 "http://www.w3.org/Graphics/SVG/1.1/DTD/svg11.dtd">
<!-- Generated by graphviz version 2.40.1 (20161225.0304)
 -->
<!-- Title: DBSCAN Pages: 1 -->
<svg width="277pt" height="508pt"
 viewBox="0.00 0.00 276.78 507.80" xmlns="http://www.w3.org/2000/svg" xmlns:xlink="http://www.w3.org/1999/xlink">
<g id="graph0" class="graph" transform="scale(1 1) rotate(0) translate(4 503.8)">
<title>DBSCAN</title>
<polygon fill="#ffffff" stroke="transparent" points="-4,4 -4,-503.8 272.7832,-503.8 272.7832,4 -4,4"/>
<!-- Start -->
<g id="node1" class="node">
<title>Start</title>
<path fill="#807dba" stroke="#000000" d="M143,-499.8C143,-499.8 113,-499.8 113,-499.8 107,-499.8 101,-493.8 101,-487.8 101,-487.8 101,-475.8 101,-475.8 101,-469.8 107,-463.8 113,-463.8 113,-463.8 143,-463.8 143,-463.8 149,-463.8 155,-469.8 155,-475.8 155,-475.8 155,-487.8 155,-487.8 155,-493.8 149,-499.8 143,-499.8"/>
<text text-anchor="middle" x="128" y="-479.4" font-family="Arial" font-size="8.00" fill="#ffffff">开始</text>
</g>
<!-- SetParameters -->
<g id="node2" class="node">
<title>SetParameters</title>
<path fill="#9ebcda" stroke="#000000" d="M143.6033,-426.8C143.6033,-426.8 112.3967,-426.8 112.3967,-426.8 106.3967,-426.8 100.3967,-420.8 100.3967,-414.8 100.3967,-414.8 100.3967,-402.8 100.3967,-402.8 100.3967,-396.8 106.3967,-390.8 112.3967,-390.8 112.3967,-390.8 143.6033,-390.8 143.6033,-390.8 149.6033,-390.8 155.6033,-396.8 155.6033,-402.8 155.6033,-402.8 155.6033,-414.8 155.6033,-414.8 155.6033,-420.8 149.6033,-426.8 143.6033,-426.8"/>
<text text-anchor="middle" x="128" y="-411.2" font-family="Arial" font-size="8.00" fill="#ffffff">设置参数</text>
<text text-anchor="middle" x="128" y="-401.6" font-family="Arial" font-size="8.00" fill="#ffffff">(ε, MinPts)</text>
</g>
<!-- Start&#45;&gt;SetParameters -->
<g id="edge1" class="edge">
<title>Start&#45;&gt;SetParameters</title>
<path fill="none" stroke="#000000" d="M128,-463.7551C128,-455.6828 128,-445.9764 128,-436.9817"/>
<polygon fill="#000000" stroke="#000000" points="131.5001,-436.8903 128,-426.8904 124.5001,-436.8904 131.5001,-436.8903"/>
</g>
<!-- ForEachPoint -->
<g id="node3" class="node">
<title>ForEachPoint</title>
<path fill="#8c96c6" stroke="#000000" d="M156.4476,-353.8C156.4476,-353.8 99.5524,-353.8 99.5524,-353.8 93.5524,-353.8 87.5524,-347.8 87.5524,-341.8 87.5524,-341.8 87.5524,-329.8 87.5524,-329.8 87.5524,-323.8 93.5524,-317.8 99.5524,-317.8 99.5524,-317.8 156.4476,-317.8 156.4476,-317.8 162.4476,-317.8 168.4476,-323.8 168.4476,-329.8 168.4476,-329.8 168.4476,-341.8 168.4476,-341.8 168.4476,-347.8 162.4476,-353.8 156.4476,-353.8"/>
<text text-anchor="middle" x="128" y="-333.4" font-family="Arial" font-size="8.00" fill="#ffffff">对每个点进行处理</text>
</g>
<!-- SetParameters&#45;&gt;ForEachPoint -->
<g id="edge2" class="edge">
<title>SetParameters&#45;&gt;ForEachPoint</title>
<path fill="none" stroke="#000000" d="M128,-390.7551C128,-382.6828 128,-372.9764 128,-363.9817"/>
<polygon fill="#000000" stroke="#000000" points="131.5001,-363.8903 128,-353.8904 124.5001,-363.8904 131.5001,-363.8903"/>
</g>
<!-- IsNotVisited -->
<g id="node4" class="node">
<title>IsNotVisited</title>
<path fill="#8c6bb1" stroke="#000000" d="M182.1829,-272.2C182.1829,-272.2 111.8171,-272.2 111.8171,-272.2 105.8171,-272.2 99.8171,-266.2 99.8171,-260.2 99.8171,-260.2 99.8171,-248.2 99.8171,-248.2 99.8171,-242.2 105.8171,-236.2 111.8171,-236.2 111.8171,-236.2 182.1829,-236.2 182.1829,-236.2 188.1829,-236.2 194.1829,-242.2 194.1829,-248.2 194.1829,-248.2 194.1829,-260.2 194.1829,-260.2 194.1829,-266.2 188.1829,-272.2 182.1829,-272.2"/>
<text text-anchor="middle" x="147" y="-251.8" font-family="Arial" font-size="8.00" fill="#ffffff">该点未被访问？</text>
</g>
<!-- ForEachPoint&#45;&gt;IsNotVisited -->
<g id="edge3" class="edge">
<title>ForEachPoint&#45;&gt;IsNotVisited</title>
<path fill="none" stroke="#000000" d="M133.3579,-317.5556C134.9437,-311.8891 136.6226,-305.6066 138,-299.8 139.327,-294.2058 140.6125,-288.1933 141.7768,-282.4286"/>
<polygon fill="#000000" stroke="#000000" points="145.2411,-282.9496 143.7245,-272.4639 138.3711,-281.6068 145.2411,-282.9496"/>
</g>
<!-- End -->
<g id="node6" class="node">
<title>End</title>
<path fill="#6e016b" stroke="#000000" d="M70,-272.2C70,-272.2 40,-272.2 40,-272.2 34,-272.2 28,-266.2 28,-260.2 28,-260.2 28,-248.2 28,-248.2 28,-242.2 34,-236.2 40,-236.2 40,-236.2 70,-236.2 70,-236.2 76,-236.2 82,-242.2 82,-248.2 82,-248.2 82,-260.2 82,-260.2 82,-266.2 76,-272.2 70,-272.2"/>
<text text-anchor="middle" x="55" y="-251.8" font-family="Arial" font-size="8.00" fill="#ffffff">结束</text>
</g>
<!-- ForEachPoint&#45;&gt;End -->
<g id="edge11" class="edge">
<title>ForEachPoint&#45;&gt;End</title>
<path fill="none" stroke="#000000" d="M93.5111,-317.7639C86.1019,-312.7054 78.822,-306.6771 73.2072,-299.8 68.9617,-294.6001 65.6052,-288.2842 62.9926,-282.0311"/>
<polygon fill="#000000" stroke="#000000" points="66.2013,-280.6145 59.4785,-272.4259 59.6274,-283.0196 66.2013,-280.6145"/>
<text text-anchor="middle" x="98.8964" y="-292.6" font-family="Arial" font-size="8.00" fill="#000000">所有点处理完毕</text>
</g>
<!-- IsNotVisited&#45;&gt;ForEachPoint -->
<g id="edge5" class="edge">
<title>IsNotVisited&#45;&gt;ForEachPoint</title>
<path fill="none" stroke="#000000" d="M136.0909,-272.2889C133.2763,-277.8431 130.6164,-284.1027 129.1064,-290.2 127.784,-295.5399 127.0978,-301.3396 126.7999,-306.9563"/>
<polygon fill="#000000" stroke="#000000" points="123.2941,-307.3103 126.6405,-317.3628 130.2933,-307.4176 123.2941,-307.3103"/>
<text text-anchor="middle" x="133.4468" y="-292.6" font-family="Arial" font-size="8.00" fill="#000000">否</text>
</g>
<!-- MarkVisited -->
<g id="node7" class="node">
<title>MarkVisited</title>
<path fill="#810f7c" stroke="#000000" d="M172.7524,-190.6C172.7524,-190.6 121.2476,-190.6 121.2476,-190.6 115.2476,-190.6 109.2476,-184.6 109.2476,-178.6 109.2476,-178.6 109.2476,-166.6 109.2476,-166.6 109.2476,-160.6 115.2476,-154.6 121.2476,-154.6 121.2476,-154.6 172.7524,-154.6 172.7524,-154.6 178.7524,-154.6 184.7524,-160.6 184.7524,-166.6 184.7524,-166.6 184.7524,-178.6 184.7524,-178.6 184.7524,-184.6 178.7524,-190.6 172.7524,-190.6"/>
<text text-anchor="middle" x="147" y="-170.2" font-family="Arial" font-size="8.00" fill="#ffffff">标记为已访问</text>
</g>
<!-- IsNotVisited&#45;&gt;MarkVisited -->
<g id="edge4" class="edge">
<title>IsNotVisited&#45;&gt;MarkVisited</title>
<path fill="none" stroke="#000000" d="M147,-236.0903C147,-225.7371 147,-212.5258 147,-200.8383"/>
<polygon fill="#000000" stroke="#000000" points="150.5001,-200.659 147,-190.6591 143.5001,-200.6591 150.5001,-200.659"/>
<text text-anchor="middle" x="151.2232" y="-211" font-family="Arial" font-size="8.00" fill="#000000">是</text>
</g>
<!-- ExpandCluster -->
<g id="node5" class="node">
<title>ExpandCluster</title>
<path fill="#88419d" stroke="#000000" d="M49,-36C49,-36 19,-36 19,-36 13,-36 7,-30 7,-24 7,-24 7,-12 7,-12 7,-6 13,0 19,0 19,0 49,0 49,0 55,0 61,-6 61,-12 61,-12 61,-24 61,-24 61,-30 55,-36 49,-36"/>
<text text-anchor="middle" x="34" y="-15.6" font-family="Arial" font-size="8.00" fill="#ffffff">扩展簇</text>
</g>
<!-- ExpandCluster&#45;&gt;ForEachPoint -->
<g id="edge9" class="edge">
<title>ExpandCluster&#45;&gt;ForEachPoint</title>
<path fill="none" stroke="#000000" d="M21.5327,-36.2258C11.8291,-52.1999 0,-76.4257 0,-99.6 0,-254.2 0,-254.2 0,-254.2 0,-292.7424 41.7755,-313.879 77.5948,-324.9181"/>
<polygon fill="#000000" stroke="#000000" points="76.922,-328.3665 87.5,-327.7701 78.8588,-321.6398 76.922,-328.3665"/>
</g>
<!-- IsCorePoint -->
<g id="node8" class="node">
<title>IsCorePoint</title>
<path fill="#88419d" stroke="#000000" d="M164.5592,-117.6C164.5592,-117.6 129.4408,-117.6 129.4408,-117.6 123.4408,-117.6 117.4408,-111.6 117.4408,-105.6 117.4408,-105.6 117.4408,-93.6 117.4408,-93.6 117.4408,-87.6 123.4408,-81.6 129.4408,-81.6 129.4408,-81.6 164.5592,-81.6 164.5592,-81.6 170.5592,-81.6 176.5592,-87.6 176.5592,-93.6 176.5592,-93.6 176.5592,-105.6 176.5592,-105.6 176.5592,-111.6 170.5592,-117.6 164.5592,-117.6"/>
<text text-anchor="middle" x="147" y="-97.2" font-family="Arial" font-size="8.00" fill="#ffffff">是核心点？</text>
</g>
<!-- MarkVisited&#45;&gt;IsCorePoint -->
<g id="edge6" class="edge">
<title>MarkVisited&#45;&gt;IsCorePoint</title>
<path fill="none" stroke="#000000" d="M147,-154.5551C147,-146.4828 147,-136.7764 147,-127.7817"/>
<polygon fill="#000000" stroke="#000000" points="150.5001,-127.6903 147,-117.6904 143.5001,-127.6904 150.5001,-127.6903"/>
</g>
<!-- IsCorePoint&#45;&gt;ExpandCluster -->
<g id="edge7" class="edge">
<title>IsCorePoint&#45;&gt;ExpandCluster</title>
<path fill="none" stroke="#000000" d="M121.9216,-81.4903C105.829,-69.8694 84.7496,-54.6475 67.2652,-42.0216"/>
<polygon fill="#000000" stroke="#000000" points="69.1645,-39.076 59.0083,-36.0591 65.0664,-44.751 69.1645,-39.076"/>
<text text-anchor="middle" x="98.2232" y="-56.4" font-family="Arial" font-size="8.00" fill="#000000">是</text>
</g>
<!-- IsNotCorePoint -->
<g id="node9" class="node">
<title>IsNotCorePoint</title>
<path fill="#8c6bb1" stroke="#000000" d="M256.5671,-36C256.5671,-36 145.4329,-36 145.4329,-36 139.4329,-36 133.4329,-30 133.4329,-24 133.4329,-24 133.4329,-12 133.4329,-12 133.4329,-6 139.4329,0 145.4329,0 145.4329,0 256.5671,0 256.5671,0 262.5671,0 268.5671,-6 268.5671,-12 268.5671,-12 268.5671,-24 268.5671,-24 268.5671,-30 262.5671,-36 256.5671,-36"/>
<text text-anchor="middle" x="201" y="-15.6" font-family="Arial" font-size="8.00" fill="#ffffff">不是核心点，标记为边界点或噪声</text>
</g>
<!-- IsCorePoint&#45;&gt;IsNotCorePoint -->
<g id="edge8" class="edge">
<title>IsCorePoint&#45;&gt;IsNotCorePoint</title>
<path fill="none" stroke="#000000" d="M158.9844,-81.4903C166.1853,-70.6089 175.4756,-56.5703 183.4884,-44.4619"/>
<polygon fill="#000000" stroke="#000000" points="186.4492,-46.3299 189.0492,-36.0591 180.6117,-42.4669 186.4492,-46.3299"/>
<text text-anchor="middle" x="179.4468" y="-56.4" font-family="Arial" font-size="8.00" fill="#000000">否</text>
</g>
<!-- IsNotCorePoint&#45;&gt;ForEachPoint -->
<g id="edge10" class="edge">
<title>IsNotCorePoint&#45;&gt;ForEachPoint</title>
<path fill="none" stroke="#000000" d="M208.4629,-36.1296C214.4989,-52.4431 222,-77.2187 222,-99.6 222,-254.2 222,-254.2 222,-254.2 222,-280.9094 200.0901,-300.8485 177.4259,-314.329"/>
<polygon fill="#000000" stroke="#000000" points="175.4392,-311.4294 168.41,-319.3567 178.8485,-317.5431 175.4392,-311.4294"/>
</g>
</g>
</svg>
